<?xml version="1.0" encoding="iso-8859-1"?>
<!-- Generator: Adobe Illustrator 19.0.0, SVG Export Plug-In . SVG Version: 6.00 Build 0)  -->
<svg version="1.1" id="Capa_1" xmlns="http://www.w3.org/2000/svg" xmlns:xlink="http://www.w3.org/1999/xlink" x="0px" y="0px"
	 viewBox="0 0 220.176 220.176" style="enable-background:new 0 0 220.176 220.176;" xml:space="preserve">
<g>
	<g>
		<g>
			<path style="fill:#010002;" d="M131.577,110.084l84.176-84.146c5.897-5.928,5.897-15.565,0-21.492
				c-5.928-5.928-15.595-5.928-21.492,0l-84.176,84.146L25.938,4.446c-5.928-5.928-15.565-5.928-21.492,0s-5.928,15.565,0,21.492
				l84.146,84.146L4.446,194.26c-5.928,5.897-5.928,15.565,0,21.492c5.928,5.897,15.565,5.897,21.492,0l84.146-84.176l84.176,84.176
				c5.897,5.897,15.565,5.897,21.492,0c5.897-5.928,5.897-15.595,0-21.492L131.577,110.084z"/>
		</g>
	</g>
	<g>
	</g>
	<g>
	</g>
	<g>
	</g>
	<g>
	</g>
	<g>
	</g>
	<g>
	</g>
	<g>
	</g>
	<g>
	</g>
	<g>
	</g>
	<g>
	</g>
	<g>
	</g>
	<g>
	</g>
	<g>
	</g>
	<g>
	</g>
	<g>
	</g>
</g>
<g>
</g>
<g>
</g>
<g>
</g>
<g>
</g>
<g>
</g>
<g>
</g>
<g>
</g>
<g>
</g>
<g>
</g>
<g>
</g>
<g>
</g>
<g>
</g>
<g>
</g>
<g>
</g>
<g>
</g>
</svg>
